<svg width="36" height="40" viewBox="0 0 36 40" fill="none" xmlns="http://www.w3.org/2000/svg">
<g clip-path="url(#clip0_326_230)">
<path d="M28.8716 11.7838L27.1291 14.3275C27.9694 15.9542 28.3808 17.7579 28.3264 19.5769C28.272 21.3959 27.7535 23.1733 26.8174 24.75H7.18242C5.96574 22.7014 5.46159 20.3268 5.7447 17.9782C6.02781 15.6297 7.08312 13.4321 8.75418 11.7115C10.4252 9.9908 12.6231 8.83857 15.0219 8.4256C17.4207 8.01262 19.8927 8.36089 22.0716 9.41876L24.6924 7.72751C22.0241 6.06681 18.859 5.32265 15.7035 5.61405C12.548 5.90546 9.5843 7.2156 7.28653 9.33491C4.98877 11.4542 3.48968 14.2602 3.02906 17.3041C2.56844 20.348 3.1729 23.4539 4.74575 26.125C4.99298 26.5406 5.34796 26.8862 5.77543 27.1275C6.2029 27.3687 6.68796 27.4971 7.18242 27.5H26.8033C27.3025 27.5019 27.7934 27.3758 28.2263 27.1343C28.6592 26.8929 29.0186 26.5447 29.2683 26.125C30.5735 23.9304 31.2286 21.4284 31.1611 18.8952C31.0936 16.362 30.3062 13.8962 28.8858 11.77L28.8716 11.7838ZM15.0024 21.1888C15.2656 21.4444 15.578 21.6473 15.922 21.7857C16.266 21.9241 16.6347 21.9953 17.007 21.9953C17.3793 21.9953 17.748 21.9241 18.092 21.7857C18.436 21.6473 18.7484 21.4444 19.0116 21.1888L27.0299 9.51501L15.0024 17.2975C14.739 17.5529 14.53 17.8562 14.3874 18.1901C14.2448 18.5239 14.1714 18.8817 14.1714 19.2431C14.1714 19.6045 14.2448 19.9624 14.3874 20.2962C14.53 20.6301 14.739 20.9334 15.0024 21.1888Z" fill="#1C1B1F"/>
</g>
<path d="M5.55682 31.9205L4.65341 32.1761C4.59659 32.0256 4.51278 31.8793 4.40199 31.7372C4.29403 31.5923 4.14631 31.473 3.95881 31.3793C3.77131 31.2855 3.53125 31.2386 3.23864 31.2386C2.83807 31.2386 2.50426 31.331 2.23722 31.5156C1.97301 31.6974 1.84091 31.929 1.84091 32.2102C1.84091 32.4602 1.93182 32.6577 2.11364 32.8026C2.29545 32.9474 2.57955 33.0682 2.96591 33.1648L3.9375 33.4034C4.52273 33.5455 4.95881 33.7628 5.24574 34.0554C5.53267 34.3452 5.67614 34.7187 5.67614 35.1761C5.67614 35.5511 5.56818 35.8864 5.35227 36.1818C5.1392 36.4773 4.84091 36.7102 4.45739 36.8807C4.07386 37.0511 3.62784 37.1364 3.11932 37.1364C2.4517 37.1364 1.89915 36.9915 1.46165 36.7017C1.02415 36.4119 0.747159 35.9886 0.630682 35.4318L1.58523 35.1932C1.67614 35.5455 1.84801 35.8097 2.10085 35.9858C2.35653 36.1619 2.69034 36.25 3.10227 36.25C3.57102 36.25 3.94318 36.1506 4.21875 35.9517C4.49716 35.75 4.63636 35.5085 4.63636 35.2273C4.63636 35 4.55682 34.8097 4.39773 34.6562C4.23864 34.5 3.99432 34.3835 3.66477 34.3068L2.57386 34.0511C1.97443 33.9091 1.53409 33.6889 1.25284 33.3906C0.974432 33.0895 0.835227 32.7131 0.835227 32.2614C0.835227 31.892 0.93892 31.5653 1.14631 31.2812C1.35653 30.9972 1.64205 30.7741 2.00284 30.6122C2.36648 30.4503 2.77841 30.3693 3.23864 30.3693C3.88636 30.3693 4.39489 30.5114 4.7642 30.7955C5.13636 31.0795 5.40057 31.4545 5.55682 31.9205ZM7.18999 39.4545V30.4545H8.16158V31.4943H8.28089C8.35476 31.3807 8.45703 31.2358 8.58771 31.0597C8.72124 30.8807 8.91158 30.7216 9.15874 30.5824C9.40874 30.4403 9.7468 30.3693 10.1729 30.3693C10.7241 30.3693 11.2099 30.5071 11.6303 30.7827C12.0508 31.0582 12.3789 31.4489 12.6147 31.9545C12.8505 32.4602 12.9684 33.0568 12.9684 33.7443C12.9684 34.4375 12.8505 35.0384 12.6147 35.5469C12.3789 36.0526 12.0522 36.4446 11.6346 36.723C11.217 36.9986 10.7354 37.1364 10.19 37.1364C9.76953 37.1364 9.43288 37.0668 9.18004 36.9276C8.9272 36.7855 8.7326 36.625 8.59624 36.446C8.45987 36.2642 8.35476 36.1136 8.28089 35.9943H8.19567V39.4545H7.18999ZM8.17862 33.7273C8.17862 34.2216 8.25107 34.6577 8.39595 35.0355C8.54084 35.4105 8.75249 35.7045 9.03089 35.9176C9.3093 36.1278 9.65021 36.233 10.0536 36.233C10.4741 36.233 10.8249 36.1222 11.1062 35.9006C11.3903 35.6761 11.6033 35.375 11.7454 34.9972C11.8903 34.6165 11.9627 34.1932 11.9627 33.7273C11.9627 33.267 11.8917 32.8523 11.7496 32.483C11.6104 32.1108 11.3988 31.8168 11.1147 31.6009C10.8335 31.3821 10.4798 31.2727 10.0536 31.2727C9.64453 31.2727 9.30078 31.3764 9.02237 31.5838C8.74396 31.7884 8.53374 32.0753 8.39169 32.4446C8.24964 32.8111 8.17862 33.2386 8.17862 33.7273ZM17.2468 37.1364C16.6161 37.1364 16.0721 36.9972 15.6147 36.7188C15.1602 36.4375 14.8093 36.0455 14.5621 35.5426C14.3178 35.0369 14.1957 34.4489 14.1957 33.7784C14.1957 33.108 14.3178 32.517 14.5621 32.0057C14.8093 31.4915 15.1531 31.0909 15.5934 30.804C16.0366 30.5142 16.5536 30.3693 17.1445 30.3693C17.4854 30.3693 17.8221 30.4261 18.1545 30.5398C18.4869 30.6534 18.7894 30.8381 19.0621 31.0938C19.3349 31.3466 19.5522 31.6818 19.7141 32.0994C19.8761 32.517 19.957 33.0312 19.957 33.642V34.0682H14.9116V33.1989H18.9343C18.9343 32.8295 18.8604 32.5 18.7127 32.2102C18.5678 31.9205 18.3604 31.6918 18.0906 31.5241C17.8235 31.3565 17.5082 31.2727 17.1445 31.2727C16.744 31.2727 16.3974 31.3722 16.1048 31.571C15.815 31.767 15.592 32.0227 15.4357 32.3381C15.2795 32.6534 15.2013 32.9915 15.2013 33.3523V33.9318C15.2013 34.4261 15.2866 34.8452 15.457 35.1889C15.6303 35.5298 15.8704 35.7898 16.1772 35.9688C16.484 36.1449 16.8406 36.233 17.2468 36.233C17.511 36.233 17.7496 36.196 17.9627 36.1222C18.1786 36.0455 18.3647 35.9318 18.521 35.7812C18.6772 35.6278 18.7979 35.4375 18.8832 35.2102L19.8548 35.483C19.7525 35.8125 19.5806 36.1023 19.3391 36.3523C19.0977 36.5994 18.7994 36.7926 18.4442 36.9318C18.0891 37.0682 17.69 37.1364 17.2468 37.1364ZM24.2312 37.1364C23.6005 37.1364 23.0565 36.9972 22.5991 36.7188C22.1445 36.4375 21.7937 36.0455 21.5465 35.5426C21.3022 35.0369 21.18 34.4489 21.18 33.7784C21.18 33.108 21.3022 32.517 21.5465 32.0057C21.7937 31.4915 22.1374 31.0909 22.5778 30.804C23.021 30.5142 23.538 30.3693 24.1289 30.3693C24.4698 30.3693 24.8065 30.4261 25.1388 30.5398C25.4712 30.6534 25.7738 30.8381 26.0465 31.0938C26.3192 31.3466 26.5366 31.6818 26.6985 32.0994C26.8604 32.517 26.9414 33.0312 26.9414 33.642V34.0682H21.896V33.1989H25.9187C25.9187 32.8295 25.8448 32.5 25.6971 32.2102C25.5522 31.9205 25.3448 31.6918 25.0749 31.5241C24.8079 31.3565 24.4925 31.2727 24.1289 31.2727C23.7283 31.2727 23.3817 31.3722 23.0891 31.571C22.7994 31.767 22.5763 32.0227 22.4201 32.3381C22.2638 32.6534 22.1857 32.9915 22.1857 33.3523V33.9318C22.1857 34.4261 22.271 34.8452 22.4414 35.1889C22.6147 35.5298 22.8548 35.7898 23.1616 35.9688C23.4684 36.1449 23.8249 36.233 24.2312 36.233C24.4954 36.233 24.734 36.196 24.9471 36.1222C25.163 36.0455 25.3491 35.9318 25.5053 35.7812C25.6616 35.6278 25.7823 35.4375 25.8675 35.2102L26.8391 35.483C26.7369 35.8125 26.565 36.1023 26.3235 36.3523C26.082 36.5994 25.7837 36.7926 25.4286 36.9318C25.0735 37.0682 24.6744 37.1364 24.2312 37.1364ZM30.9428 37.1364C30.3974 37.1364 29.9158 36.9986 29.4982 36.723C29.0806 36.4446 28.7539 36.0526 28.5181 35.5469C28.2823 35.0384 28.1644 34.4375 28.1644 33.7443C28.1644 33.0568 28.2823 32.4602 28.5181 31.9545C28.7539 31.4489 29.082 31.0582 29.5025 30.7827C29.9229 30.5071 30.4087 30.3693 30.9599 30.3693C31.386 30.3693 31.7227 30.4403 31.9698 30.5824C32.2198 30.7216 32.4102 30.8807 32.5408 31.0597C32.6744 31.2358 32.7781 31.3807 32.8519 31.4943H32.9371V28.2727H33.9428V37H32.9712V35.9943H32.8519C32.7781 36.1136 32.6729 36.2642 32.5366 36.446C32.4002 36.625 32.2056 36.7855 31.9528 36.9276C31.6999 37.0668 31.3633 37.1364 30.9428 37.1364ZM31.0792 36.233C31.4826 36.233 31.8235 36.1278 32.1019 35.9176C32.3803 35.7045 32.592 35.4105 32.7369 35.0355C32.8817 34.6577 32.9542 34.2216 32.9542 33.7273C32.9542 33.2386 32.8832 32.8111 32.7411 32.4446C32.5991 32.0753 32.3888 31.7884 32.1104 31.5838C31.832 31.3764 31.4883 31.2727 31.0792 31.2727C30.6531 31.2727 30.2979 31.3821 30.0138 31.6009C29.7326 31.8168 29.521 32.1108 29.3789 32.483C29.2397 32.8523 29.1701 33.267 29.1701 33.7273C29.1701 34.1932 29.2411 34.6165 29.3832 34.9972C29.5281 35.375 29.7411 35.6761 30.0224 35.9006C30.3065 36.1222 30.6587 36.233 31.0792 36.233Z" fill="#1C1B1F"/>
<defs>
<clipPath id="clip0_326_230">
<rect width="34" height="33" fill="white"/>
</clipPath>
</defs>
</svg>
