<svg width="38" height="30" viewBox="0 0 38 30" fill="none" xmlns="http://www.w3.org/2000/svg">
<path d="M28 25.1L29.6 23.5L24.25 18.15C24.7167 17.45 25.05 16.7583 25.25 16.075C25.45 15.3917 25.55 14.6667 25.55 13.9C25.55 11.7667 24.825 9.975 23.375 8.525C21.925 7.075 20.15 6.35 18.05 6.35C15.95 6.35 14.1417 7.075 12.625 8.525C11.1083 9.975 10.35 11.7667 10.35 13.9C10.35 16.0333 11.1083 17.8333 12.625 19.3C14.1417 20.7667 15.95 21.5 18.05 21.5C18.9167 21.5 19.7417 21.3667 20.525 21.1C21.3083 20.8333 22.05 20.4 22.75 19.8L28 25.1ZM18.05 19.25C16.55 19.25 15.275 18.7417 14.225 17.725C13.175 16.7083 12.65 15.4333 12.65 13.9C12.65 12.3667 13.175 11.1 14.225 10.1C15.275 9.1 16.55 8.6 18.05 8.6C19.55 8.6 20.8 9.1 21.8 10.1C22.8 11.1 23.3 12.3667 23.3 13.9C23.3 15.4333 22.8 16.7083 21.8 17.725C20.8 18.7417 19.55 19.25 18.05 19.25ZM2.9 30C2.1 30 1.41667 29.7167 0.85 29.15C0.283333 28.5833 0 27.9 0 27.1V2.9C0 2.1 0.283333 1.41667 0.85 0.85C1.41667 0.283334 2.1 0 2.9 0H35.1C35.9333 0 36.625 0.283334 37.175 0.85C37.725 1.41667 38 2.1 38 2.9V27.1C38 27.9 37.725 28.5833 37.175 29.15C36.625 29.7167 35.9333 30 35.1 30H2.9Z" fill="#1C1B1F"/>
</svg>
