<svg width="39" height="39" viewBox="0 0 39 39" fill="none" xmlns="http://www.w3.org/2000/svg">
<circle cx="19.5" cy="19.5" r="19.5" fill="#1C1B1F"/>
<g clip-path="url(#clip0_314_252)">
<path d="M27.6437 23.5861C27.3385 24.2848 26.9772 24.928 26.5586 25.5193C25.9881 26.3255 25.5209 26.8835 25.1609 27.1934C24.6027 27.702 24.0048 27.9625 23.3644 27.9773C22.9047 27.9773 22.3504 27.8477 21.705 27.5847C21.0576 27.323 20.4626 27.1934 19.9186 27.1934C19.348 27.1934 18.7361 27.323 18.0815 27.5847C17.426 27.8477 16.8979 27.9847 16.4942 27.9983C15.8801 28.0242 15.2681 27.7563 14.6571 27.1934C14.2672 26.8563 13.7795 26.2786 13.1952 25.4601C12.5683 24.586 12.0529 23.5725 11.6492 22.417C11.2168 21.1689 11 19.9603 11 18.7902C11 17.4498 11.2923 16.2938 11.8777 15.3251C12.3377 14.547 12.9498 13.9332 13.7158 13.4826C14.4818 13.0319 15.3095 12.8023 16.2009 12.7876C16.6886 12.7876 17.3282 12.9371 18.123 13.231C18.9156 13.5258 19.4245 13.6753 19.6476 13.6753C19.8144 13.6753 20.3798 13.5005 21.3382 13.1519C22.2445 12.8287 23.0094 12.6949 23.636 12.7476C25.334 12.8834 26.6097 13.5467 27.4581 14.7418C25.9395 15.6536 25.1883 16.9307 25.2032 18.5691C25.2169 19.8452 25.6841 20.9071 26.6022 21.7503C27.0183 22.1417 27.483 22.4441 28 22.6589C27.8879 22.9812 27.7695 23.2898 27.6437 23.5861ZM23.7494 8.40011C23.7494 9.40034 23.3806 10.3343 22.6456 11.1987C21.7586 12.2263 20.6857 12.8201 19.5223 12.7264C19.5075 12.6064 19.4989 12.4801 19.4989 12.3474C19.4989 11.3872 19.9207 10.3596 20.6698 9.51934C21.0438 9.09392 21.5194 8.74019 22.0962 8.45801C22.6718 8.18005 23.2162 8.02632 23.7282 8C23.7431 8.13371 23.7494 8.26745 23.7494 8.40011Z" fill="white"/>
</g>
<defs>
<clipPath id="clip0_314_252">
<rect width="17" height="20" fill="white" transform="translate(11 8)"/>
</clipPath>
</defs>
</svg>
