<svg width="39" height="39" viewBox="0 0 39 39" fill="none" xmlns="http://www.w3.org/2000/svg">
<path d="M38.5 19.5C38.5 29.9934 29.9934 38.5 19.5 38.5C9.00659 38.5 0.499997 29.9934 0.499997 19.5C0.499997 9.00659 9.00659 0.5 19.5 0.5C29.9934 0.5 38.5 9.00659 38.5 19.5Z" fill="white" stroke="#BFBFBF"/>
<g clip-path="url(#clip0_314_249)">
<path d="M31 19.7548C31 18.812 30.9251 18.1239 30.763 17.4104H20.2245V21.666H26.4104C26.2857 22.7235 25.6122 24.3162 24.1156 25.3864L24.0946 25.5289L27.4267 28.166L27.6576 28.1896C29.7777 26.1892 31 23.2459 31 19.7548Z" fill="#4285F4"/>
<path d="M20.2245 30.9671C23.2551 30.9671 25.7992 29.9478 27.6576 28.1896L24.1156 25.3864C23.1678 26.0617 21.8957 26.5331 20.2245 26.5331C17.2563 26.5331 14.737 24.5328 13.839 21.768L13.7073 21.7794L10.2426 24.5187L10.1973 24.6474C12.043 28.3933 15.8344 30.9671 20.2245 30.9671Z" fill="#34A853"/>
<path d="M13.839 21.768C13.602 21.0545 13.4649 20.2899 13.4649 19.5C13.4649 18.71 13.602 17.9455 13.8265 17.232L13.8202 17.0801L10.312 14.2967L10.1973 14.3525C9.43651 15.9069 9 17.6525 9 19.5C9 21.3475 9.43651 23.093 10.1973 24.6474L13.839 21.768Z" fill="#FBBC05"/>
<path d="M20.2245 12.4668C22.3322 12.4668 23.7539 13.3969 24.5646 14.1742L27.7324 11.0143C25.7869 9.16683 23.2551 8.03286 20.2245 8.03286C15.8344 8.03286 12.043 10.6066 10.1973 14.3525L13.8265 17.232C14.737 14.4672 17.2563 12.4668 20.2245 12.4668Z" fill="#EB4335"/>
</g>
<defs>
<clipPath id="clip0_314_249">
<rect width="22" height="23" fill="white" transform="translate(9 8)"/>
</clipPath>
</defs>
</svg>
