<svg width="49" height="62" viewBox="0 0 49 62" fill="none" xmlns="http://www.w3.org/2000/svg">
<path d="M42.8658 37.5911C42.8658 47.6866 34.6613 55.8911 24.5658 55.8911C14.4703 55.8911 6.26577 47.6866 6.26577 37.5911C6.26577 27.4956 14.4703 19.2911 24.5658 19.2911V31.4911L39.8158 16.2411L24.5658 0.991089V13.1911C11.0848 13.1911 0.165771 24.1101 0.165771 37.5911C0.165771 51.0721 11.0848 61.9911 24.5658 61.9911C38.0468 61.9911 48.9658 51.0721 48.9658 37.5911H42.8658Z" fill="white"/>
<path d="M21.0888 46.5581V33.5346H20.8143L15.4158 35.4561V37.5606L18.4963 36.6151V46.5581H21.0888Z" fill="white"/>
<path d="M25.3284 38.933V41.19C25.3284 46.985 29.3239 46.741 29.7204 46.741C30.1474 46.741 34.1124 47.0155 34.1124 41.19V38.933C34.1124 33.138 30.1169 33.382 29.7204 33.382C29.2934 33.382 25.3284 33.1075 25.3284 38.933ZM31.5504 38.567V41.5255C31.5504 43.874 30.9099 44.667 29.7509 44.667C28.5919 44.667 27.9209 43.874 27.9209 41.5255V38.567C27.9209 36.2795 28.5919 35.4865 29.7204 35.4865C30.8794 35.456 31.5504 36.2795 31.5504 38.567Z" fill="white"/>
</svg>
