<svg width="30" height="30" viewBox="0 0 30 30" fill="none" xmlns="http://www.w3.org/2000/svg">
<path d="M15.0834 17.9166C16.5556 17.9166 17.8125 17.4028 18.8542 16.375C19.8959 15.3472 20.4167 14.0694 20.4167 12.5416C20.4167 11.0694 19.8959 9.81248 18.8542 8.77081C17.8125 7.72915 16.5556 7.20831 15.0834 7.20831C13.5556 7.20831 12.2778 7.72915 11.25 8.77081C10.2223 9.81248 9.70837 11.0694 9.70837 12.5416C9.70837 14.0694 10.2223 15.3472 11.25 16.375C12.2778 17.4028 13.5556 17.9166 15.0834 17.9166ZM3.25004 29.1666C2.58337 29.1666 2.01393 28.9305 1.54171 28.4583C1.06949 27.9861 0.833374 27.4166 0.833374 26.75V3.24998C0.833374 2.58331 1.06949 2.01387 1.54171 1.54165C2.01393 1.06942 2.58337 0.833313 3.25004 0.833313H26.75C27.4167 0.833313 27.9862 1.06942 28.4584 1.54165C28.9306 2.01387 29.1667 2.58331 29.1667 3.24998V26.75C29.1667 27.4166 28.9306 27.9861 28.4584 28.4583C27.9862 28.9305 27.4167 29.1666 26.75 29.1666H3.25004ZM3.08337 27.2916H26.9167C27.0278 27.0139 27.1042 26.7986 27.1459 26.6458C27.1875 26.493 27.2362 26.2639 27.2917 25.9583C25.6528 24.4305 23.7987 23.2014 21.7292 22.2708C19.6598 21.3403 17.4167 20.875 15 20.875C12.5834 20.875 10.3403 21.3403 8.27087 22.2708C6.20143 23.2014 4.34726 24.4305 2.70837 25.9583C2.76393 26.2639 2.81254 26.493 2.85421 26.6458C2.89587 26.7986 2.97226 27.0139 3.08337 27.2916Z" fill="#1C1B1F"/>
</svg>
