<svg width="49" height="62" viewBox="0 0 49 62" fill="none" xmlns="http://www.w3.org/2000/svg">
<path d="M24.5658 13.1911V0.991089L9.31577 16.2411L24.5658 31.4911V19.2911C34.6613 19.2911 42.8658 27.4956 42.8658 37.5911C42.8658 47.6866 34.6613 55.8911 24.5658 55.8911C14.4703 55.8911 6.26577 47.6866 6.26577 37.5911H0.165771C0.165771 51.0721 11.0848 61.9911 24.5658 61.9911C38.0468 61.9911 48.9658 51.0721 48.9658 37.5911C48.9658 24.1101 38.0468 13.1911 24.5658 13.1911Z" fill="white"/>
<path d="M21.2108 46.741H18.6183V36.798L15.5378 37.7435V35.639L20.9363 33.7175H21.2108V46.741Z" fill="white"/>
<path d="M34.2647 41.3731C34.2647 42.3491 34.1732 43.2031 33.9597 43.8741C33.7462 44.5451 33.4412 45.1551 33.0752 45.6126C32.7092 46.0701 32.2212 46.4056 31.7027 46.6191C31.1842 46.8326 30.5742 46.9241 29.9032 46.9241C29.2322 46.9241 28.6527 46.8326 28.1037 46.6191C27.5547 46.4056 27.0972 46.0701 26.7007 45.6126C26.3042 45.1551 25.9992 44.5756 25.7857 43.8741C25.5722 43.1726 25.4502 42.3491 25.4502 41.3731V39.1161C25.4502 38.1401 25.5417 37.2861 25.7552 36.6151C25.9687 35.9441 26.2737 35.3341 26.6397 34.8766C27.0057 34.4191 27.4937 34.0836 28.0122 33.8701C28.5307 33.6566 29.1407 33.5651 29.8117 33.5651C30.4827 33.5651 31.0622 33.6566 31.6112 33.8701C32.1602 34.0836 32.6177 34.4191 33.0142 34.8766C33.4107 35.3341 33.7157 35.9136 33.9292 36.6151C34.1427 37.3166 34.2647 38.1401 34.2647 39.1161V41.3731ZM31.6722 38.7501C31.6722 38.1706 31.6417 37.6826 31.5502 37.2861C31.4587 36.8896 31.3367 36.5846 31.1842 36.3406C31.0317 36.0966 30.8487 35.9136 30.6047 35.8221C30.3607 35.7306 30.1167 35.6696 29.8422 35.6696C29.5677 35.6696 29.2932 35.7306 29.0797 35.8221C28.8662 35.9136 28.6527 36.0966 28.5002 36.3406C28.3477 36.5846 28.2257 36.8896 28.1342 37.2861C28.0427 37.6826 28.0122 38.1706 28.0122 38.7501V41.7086C28.0122 42.2881 28.0427 42.7761 28.1342 43.1726C28.2257 43.5691 28.3477 43.9046 28.5002 44.1486C28.6527 44.3926 28.8357 44.5756 29.0797 44.6671C29.3237 44.7586 29.5677 44.8196 29.8422 44.8196C30.1167 44.8196 30.3912 44.7586 30.6047 44.6671C30.8182 44.5756 31.0317 44.3926 31.1842 44.1486C31.3367 43.9046 31.4587 43.5691 31.5197 43.1726C31.5807 42.7761 31.6417 42.2881 31.6417 41.7086V38.7501H31.6722Z" fill="white"/>
</svg>
