<svg width="34" height="39" viewBox="0 0 34 39" fill="none" xmlns="http://www.w3.org/2000/svg">
<path d="M8.5 24.1C8 24.1 7.575 23.925 7.225 23.575C6.875 23.225 6.7 22.8167 6.7 22.35C6.7 21.85 6.875 21.425 7.225 21.075C7.575 20.725 8 20.55 8.5 20.55C9 20.55 9.41667 20.725 9.75 21.075C10.0833 21.425 10.25 21.85 10.25 22.35C10.25 22.8167 10.0833 23.225 9.75 23.575C9.41667 23.925 9 24.1 8.5 24.1ZM17.1 24.1C16.6333 24.1 16.225 23.925 15.875 23.575C15.525 23.225 15.35 22.8167 15.35 22.35C15.35 21.85 15.525 21.425 15.875 21.075C16.225 20.725 16.6333 20.55 17.1 20.55C17.6 20.55 18.025 20.725 18.375 21.075C18.725 21.425 18.9 21.85 18.9 22.35C18.9 22.8167 18.725 23.225 18.375 23.575C18.025 23.925 17.6 24.1 17.1 24.1ZM25.5 24.1C25 24.1 24.575 23.925 24.225 23.575C23.875 23.225 23.7 22.8167 23.7 22.35C23.7 21.85 23.875 21.425 24.225 21.075C24.575 20.725 25 20.55 25.5 20.55C25.9667 20.55 26.375 20.725 26.725 21.075C27.075 21.425 27.25 21.85 27.25 22.35C27.25 22.8167 27.075 23.225 26.725 23.575C26.375 23.925 25.9667 24.1 25.5 24.1ZM2.9 39C2.1 39 1.41667 38.7167 0.85 38.15C0.283333 37.5833 0 36.9 0 36.1V7.15C0 6.38333 0.283333 5.70833 0.85 5.125C1.41667 4.54167 2.1 4.25 2.9 4.25H6.6V0.75H9.1V4.25H25V0.75H27.45V4.25H31.1C31.9 4.25 32.5833 4.54167 33.15 5.125C33.7167 5.70833 34 6.38333 34 7.15V36.1C34 36.9 33.7167 37.5833 33.15 38.15C32.5833 38.7167 31.9 39 31.1 39H2.9ZM2.9 36.75H31.1C31.2667 36.75 31.4167 36.6833 31.55 36.55C31.6833 36.4167 31.75 36.2667 31.75 36.1V16.25H2.25V36.1C2.25 36.2667 2.31667 36.4167 2.45 36.55C2.58333 36.6833 2.73333 36.75 2.9 36.75Z" fill="#1C1B1F"/>
</svg>
