<svg width="39" height="39" viewBox="0 0 39 39" fill="none" xmlns="http://www.w3.org/2000/svg">
<circle cx="19.5" cy="19.5" r="19.5" fill="#FFE587"/>
<path d="M19.5 8C13.1487 8 8 12.2079 8 17.3986C8 20.7545 10.1525 23.6991 13.3904 25.3619C13.2143 25.9916 12.2584 29.4129 12.2204 29.6817C12.2204 29.6817 12.1975 29.8836 12.3237 29.9607C12.4498 30.0377 12.5982 29.9779 12.5982 29.9779C12.96 29.9255 16.7939 27.1341 17.4574 26.6494C18.1203 26.7467 18.8029 26.7972 19.5 26.7972C25.8513 26.7972 31 22.5894 31 17.3986C31 12.2079 25.8513 8 19.5 8Z" fill="black"/>
</svg>
