<svg width="81" height="81" viewBox="0 0 81 81" fill="none" xmlns="http://www.w3.org/2000/svg">
<path d="M8.1116 80.6139C5.89625 80.6139 4.00045 79.8258 2.42419 78.2495C0.845256 76.6706 0.0557861 74.7734 0.0557861 72.5581V32.279C0.0557861 30.0637 0.845256 28.1665 2.42419 26.5876C4.00045 25.0113 5.89625 24.2232 8.1116 24.2232H72.5581C74.7734 24.2232 76.6706 25.0113 78.2495 26.5876C79.8258 28.1665 80.6139 30.0637 80.6139 32.279V72.5581C80.6139 74.7734 79.8258 76.6706 78.2495 78.2495C76.6706 79.8258 74.7734 80.6139 72.5581 80.6139H8.1116ZM32.279 68.5302L56.4465 52.4186L32.279 36.3069V68.5302ZM8.1116 20.1953V12.1395H72.5581V20.1953H8.1116ZM20.1953 8.1116V0.0557861H60.4744V8.1116H20.1953Z" fill="#92979A"/>
</svg>
