<svg width="18" height="18" viewBox="0 0 18 18" fill="none" xmlns="http://www.w3.org/2000/svg">
<path d="M7.64794 12.8729L13.8354 6.68542L13.0334 5.90626L7.64794 11.2917L4.94377 8.56459L4.1646 9.36667L7.64794 12.8729ZM9.00002 17.7083C7.80835 17.7083 6.68162 17.4792 5.61981 17.0208C4.55801 16.5625 3.6337 15.9399 2.8469 15.1531C2.06009 14.3663 1.43752 13.442 0.979187 12.3802C0.520854 11.3184 0.291687 10.1917 0.291687 9.00001C0.291687 7.79306 0.520854 6.65869 0.979187 5.59688C1.43752 4.53508 2.06009 3.61459 2.8469 2.83542C3.6337 2.05626 4.55801 1.43751 5.61981 0.979172C6.68162 0.520838 7.80835 0.291672 9.00002 0.291672C10.207 0.291672 11.3413 0.520838 12.4031 0.979172C13.465 1.43751 14.3854 2.05626 15.1646 2.83542C15.9438 3.61459 16.5625 4.53508 17.0209 5.59688C17.4792 6.65869 17.7084 7.79306 17.7084 9.00001C17.7084 10.1917 17.4792 11.3184 17.0209 12.3802C16.5625 13.442 15.9438 14.3663 15.1646 15.1531C14.3854 15.9399 13.465 16.5625 12.4031 17.0208C11.3413 17.4792 10.207 17.7083 9.00002 17.7083Z" fill="#EFEFF0"/>
</svg>
